# xmcd
#
# Track frame offsets:
#	150
#	12425
#	29615
#	48822
#	63047
#	77270
#	86087
#	98462
#	108610
#	119310
#	128082
#
# Disc length: 1828 seconds
#
# Revision: 0
# Processed by: cddbd v1.5.1PL0 Copyright (c) Steve Scherf et al.
# Submitted via: dBpowerAMP V4.0
#
DISCID=7c07220b
DTITLE=Ralph Stanley - Christmas Time with Ralph Stanley
DYEAR=1900
DGENRE=Bluegrass
TTITLE0=I'm Going Home, It's Christmas Time
TTITLE1=Beautiful Star of Bethlehem
TTITLE2=Christmas Praise
TTITLE3=Jesus Christ Is Born
TTITLE4=Christmas Time's A-Coming
TTITLE5=Don't Make Us Cry on Christmas Day
TTITLE6=Christmas Spirit
TTITLE7=Just a Moment Now to Pray
TTITLE8=Bright Morning Star
TTITLE9=Christmas Is Near
TTITLE10=That's Christmas Time to Me
EXTD=
EXTT0=
EXTT1=
EXTT2=
EXTT3=
EXTT4=
EXTT5=
EXTT6=
EXTT7=
EXTT8=
EXTT9=
EXTT10=
PLAYORDER=
